<?xml version="1.0" standalone="no"?>
<!DOCTYPE svg PUBLIC "-//W3C//DTD SVG 20010904//EN"
 "http://www.w3.org/TR/2001/REC-SVG-20010904/DTD/svg10.dtd">
<svg version="1.0" xmlns="http://www.w3.org/2000/svg"
 width="500.000000pt" height="500.000000pt" viewBox="0 0 500.000000 500.000000"
 preserveAspectRatio="xMidYMid meet">

<g transform="translate(0.000000,500.000000) scale(0.100000,-0.100000)"
fill="#000000" stroke="none">
<path d="M2350 4926 c-58 -18 -136 -49 -175 -68 -118 -61 -230 -194 -305 -363
-19 -44 -22 -71 -26 -228 -3 -163 -2 -182 17 -222 11 -24 19 -49 18 -57 -1 -7
1 -21 6 -31 15 -35 -11 -42 -49 -14 -42 33 -82 35 -91 7 -8 -26 3 -120 22
-190 19 -67 57 -122 79 -113 13 5 9 13 -20 40 -24 23 -36 43 -36 61 l1 27 30
-35 c16 -19 34 -41 40 -47 16 -21 38 -16 32 8 -5 19 -3 18 21 -5 31 -31 32
-36 9 -36 -13 0 -14 -3 -5 -12 7 -7 12 -23 12 -35 0 -17 5 -23 16 -21 10 2 19
-2 21 -9 5 -14 -71 -37 -96 -29 -11 4 -10 1 4 -10 15 -11 32 -13 67 -9 56 8
61 1 72 -100 9 -81 33 -157 74 -234 38 -73 36 -92 -4 -31 -16 24 -34 40 -43
38 -24 -5 -79 -95 -90 -147 -19 -91 17 -338 69 -471 18 -46 71 -147 115 -218
91 -149 168 -211 261 -212 43 0 55 -18 64 -97 10 -81 28 -215 36 -263 6 -34 6
-34 56 60 28 52 63 118 77 145 46 88 53 94 99 92 23 0 42 -5 42 -9 0 -4 15 -8
34 -8 50 0 108 62 189 202 35 60 34 68 -2 29 -16 -17 -34 -31 -41 -31 -6 0 -8
-5 -4 -11 4 -7 0 -9 -13 -5 -11 3 -44 7 -74 7 -39 1 -60 7 -76 21 -12 11 -26
17 -32 14 -5 -4 -22 -4 -36 0 -36 9 -32 42 10 91 36 42 163 135 202 147 42 13
47 31 28 91 -9 31 -23 62 -31 69 -16 17 -38 217 -28 266 4 19 8 44 8 55 1 11
6 31 10 43 8 23 7 23 -17 7 -14 -9 -28 -12 -31 -7 -8 13 1 50 17 76 8 11 17
33 21 49 7 29 -2 34 -35 17 -16 -9 -19 -7 -19 15 0 15 -5 35 -10 45 -12 23
-64 49 -102 52 -16 1 -28 5 -28 9 0 4 -11 10 -24 13 -15 4 -26 16 -30 32 -6
21 -1 33 23 57 38 37 39 48 2 75 -24 18 -35 20 -62 12 -50 -15 -94 -12 -129 8
-25 13 -34 14 -37 5 -3 -7 -13 -13 -24 -13 -23 0 -24 -9 -3 -54 14 -29 15 -38
3 -64 -12 -28 -16 -30 -88 -35 -42 -3 -86 -8 -98 -12 -16 -5 -23 -2 -27 13 -6
18 -66 56 -91 57 -5 0 -14 18 -21 40 -6 22 -25 65 -42 95 -41 75 -52 123 -45
193 7 68 25 92 62 82 14 -3 33 -6 41 -7 8 -1 28 -11 43 -24 15 -13 44 -26 63
-30 47 -9 151 1 168 16 8 6 25 8 39 5 42 -11 64 3 86 56 15 34 30 53 48 60 38
14 50 6 64 -43 17 -63 39 -88 100 -109 124 -45 194 -44 240 2 10 10 30 19 43
19 31 0 56 34 56 75 0 29 15 64 23 55 2 -3 9 -35 15 -71 22 -123 14 -195 -33
-311 -6 -15 -2 -18 20 -18 22 0 25 3 20 20 -4 14 -1 22 10 26 10 4 13 9 6 13
-11 7 -3 51 9 51 5 0 10 -7 12 -17 2 -12 15 -4 50 32 35 35 48 56 51 84 l3 36
9 -35 8 -34 19 64 c30 108 23 118 -52 80 -56 -29 -60 -26 -39 27 6 15 13 45
14 66 2 21 11 49 20 63 9 14 19 47 22 74 3 27 10 47 14 44 10 -6 40 58 59 123
13 42 7 133 -11 180 -5 13 -13 53 -19 89 -10 64 -59 186 -80 199 -6 3 -8 10
-5 15 7 11 -30 32 -39 23 -3 -3 -6 -1 -6 5 0 7 -7 12 -16 12 -8 0 -13 4 -10 9
4 5 -4 7 -16 3 -14 -3 -19 -1 -14 6 4 7 -3 14 -19 18 -14 3 -25 10 -25 15 0 5
-10 8 -22 6 -15 -1 -22 3 -20 11 2 9 -8 13 -30 12 -53 -3 -61 -1 -54 15 3 9 0
15 -9 15 -19 0 -19 9 1 31 15 17 13 17 -32 11 -81 -11 -146 -7 -214 16 -58 19
-188 43 -222 41 -7 0 -60 -15 -118 -33z m617 -624 c50 -54 53 -60 53 -112 0
-61 31 -192 50 -215 15 -18 6 -19 -21 -4 -19 10 -135 20 -261 23 -46 1 -61 -3
-81 -22 -18 -17 -41 -25 -81 -29 -71 -6 -111 8 -161 56 l-40 38 -90 -4 c-63
-3 -102 -1 -132 10 -24 8 -47 11 -55 6 -7 -5 -18 -9 -25 -9 -16 0 12 67 42
100 12 14 20 31 18 38 -7 18 4 15 27 -8 30 -30 53 -25 113 24 78 63 102 73
197 79 69 4 106 14 200 50 152 60 175 58 247 -21z m-1176 -505 c-8 -8 -11 -7
-11 4 0 20 13 34 18 19 3 -7 -1 -17 -7 -23z m509 23 c0 -5 -4 -10 -10 -10 -5
0 -10 5 -10 10 0 6 5 10 10 10 6 0 10 -4 10 -10z m-360 -42 c0 -16 -3 -19 -11
-11 -6 6 -8 16 -5 22 11 17 16 13 16 -11z m718 -442 c12 -1 22 -5 22 -10 0 -5
-19 -6 -42 -3 -24 3 -52 2 -63 -3 -11 -4 -29 -3 -40 4 -18 10 -15 12 25 17 25
3 52 4 60 1 8 -3 25 -6 38 -6z m-79 -84 c91 -8 114 -23 59 -40 -49 -15 -118
-21 -118 -11 0 5 -20 14 -44 20 -25 6 -53 20 -63 31 -18 20 -18 20 32 14 28
-4 88 -10 134 -14z m-231 -54 c7 -7 12 -24 12 -39 0 -36 17 -47 91 -63 48 -9
92 -10 176 -3 133 11 148 8 138 -31 -15 -63 -101 -115 -143 -87 -30 21 -111
29 -217 22 -68 -5 -71 -4 -102 26 -30 29 -45 77 -24 77 5 0 16 11 25 25 13 19
14 30 6 45 -18 34 11 55 38 28z m404 -5 c29 -26 23 -59 -12 -72 -39 -13 -60
-5 -57 22 1 15 -5 22 -23 27 l-24 6 24 17 c31 22 68 22 92 0z m108 -143 c0 -9
-32 -30 -46 -30 -4 0 1 9 11 20 19 21 35 26 35 10z"/>
<path d="M3220 3595 c-16 -17 -19 -25 -9 -25 14 0 44 38 36 46 -2 2 -14 -7
-27 -21z"/>
<path d="M3057 3487 c-7 -18 33 -37 71 -36 l27 1 -30 10 c-16 6 -37 17 -46 25
-14 12 -17 12 -22 0z"/>
<path d="M2944 3149 c-3 -6 15 -30 43 -54 27 -23 62 -67 78 -96 l30 -54 -2
-157 c-2 -106 1 -159 9 -164 8 -5 9 42 6 167 -6 193 -6 195 -85 307 -42 60
-64 74 -79 51z"/>
<path d="M1390 1521 c0 -11 5 -23 10 -26 6 -3 10 3 10 14 0 11 -4 23 -10 26
-5 3 -10 -3 -10 -14z"/>
<path d="M3720 1406 c-14 -38 -13 -49 6 -42 9 3 19 6 24 6 18 0 18 29 0 45
-19 17 -20 16 -30 -9z"/>
<path d="M4473 1273 c9 -2 25 -2 35 0 9 3 1 5 -18 5 -19 0 -27 -2 -17 -5z"/>
<path d="M4048 1213 c7 -3 16 -2 19 1 4 3 -2 6 -13 5 -11 0 -14 -3 -6 -6z"/>
<path d="M684 1154 c3 -32 8 -99 11 -149 17 -266 55 -496 111 -661 19 -57 39
-138 44 -181 6 -43 18 -97 26 -121 l16 -42 419 0 c290 1 419 4 419 11 0 6 -7
9 -15 5 -8 -3 -15 0 -15 6 0 6 -3 8 -7 5 -3 -4 -21 4 -39 18 -18 14 -42 25
-53 25 -11 0 -27 7 -35 16 -9 8 -22 14 -28 12 -7 -3 -18 0 -25 6 -33 29 -41
34 -47 29 -3 -4 -6 -1 -6 6 0 7 -4 10 -9 7 -5 -3 -14 1 -21 9 -7 8 -16 13 -20
10 -5 -3 -14 1 -22 8 -21 21 -54 37 -77 37 -13 0 -21 6 -21 17 0 9 -3 13 -7
10 -3 -4 -13 -1 -22 6 -9 7 -43 22 -76 32 -61 18 -106 36 -115 45 -3 3 -15 11
-27 18 -22 12 -23 11 -23 -26 0 -21 7 -48 16 -60 9 -13 13 -26 10 -29 -3 -3
-1 -14 4 -24 14 -25 -3 -32 -36 -14 -16 8 -25 15 -21 15 5 0 1 10 -7 22 -9 12
-16 33 -16 46 0 12 -11 35 -25 50 -14 15 -34 55 -46 89 -11 34 -26 67 -34 73
-8 6 -17 26 -21 43 -3 17 -13 41 -20 52 -36 55 -99 514 -76 550 4 5 7 19 7 30
0 18 8 21 70 25 l70 5 -65 7 c-36 4 -84 10 -108 14 l-43 7 5 -59z"/>
<path d="M3900 1193 c-46 -7 -86 -16 -88 -18 -8 -8 20 -129 54 -235 19 -58 68
-171 109 -252 41 -81 75 -154 75 -163 0 -21 19 -19 26 3 3 9 12 28 19 42 7 14
15 34 17 45 1 11 7 23 12 26 18 13 9 60 -15 77 -13 9 -27 17 -31 17 -3 0 -15
9 -25 21 -10 11 -26 23 -35 27 -10 3 -18 13 -18 21 0 8 -3 16 -8 18 -24 10
-112 153 -112 181 0 9 -6 22 -14 30 -15 14 -36 79 -36 109 0 18 20 26 135 52
77 18 44 17 -65 -1z"/>
<path d="M3130 1182 c-24 -19 -21 -42 6 -42 8 0 14 -5 14 -11 0 -6 -9 -9 -20
-6 -22 6 -37 -10 -23 -24 5 -5 20 -2 37 6 16 8 36 15 45 14 9 0 0 -7 -19 -16
-37 -16 -70 -41 -70 -54 0 -13 50 -5 59 9 4 7 17 14 29 17 12 2 25 6 30 8 4 3
45 8 92 11 108 9 148 40 105 82 -13 14 -15 13 -15 -8 l0 -23 -13 25 c-14 28
-43 38 -60 21 -9 -9 -8 -14 2 -20 10 -7 10 -10 1 -16 -7 -4 -15 -3 -19 2 -6
11 -77 10 -121 -1 -30 -7 -63 2 -54 15 3 5 15 7 26 3 14 -4 19 -2 16 7 -7 21
-23 21 -48 1z m240 -21 c0 -6 -4 -13 -10 -16 -5 -3 -10 1 -10 9 0 9 5 16 10
16 6 0 10 -4 10 -9z m-72 -38 c-10 -2 -28 -2 -40 0 -13 2 -5 4 17 4 22 1 32
-1 23 -4z m49 1 c-3 -3 -12 -4 -19 -1 -8 3 -5 6 6 6 11 1 17 -2 13 -5z"/>
<path d="M928 1173 c12 -2 30 -2 40 0 9 3 -1 5 -23 4 -22 0 -30 -2 -17 -4z"/>
<path d="M4591 311 c0 -7 -7 -11 -16 -7 -8 3 -15 1 -15 -4 0 -6 -5 -10 -11
-10 -6 0 -23 -9 -39 -20 -15 -11 -29 -17 -32 -15 -3 3 -13 -4 -23 -15 -10 -11
-22 -20 -28 -20 -13 0 -47 -40 -47 -54 0 -6 -8 -19 -17 -28 -10 -9 -26 -28
-36 -42 -10 -14 -27 -26 -38 -26 -11 0 -22 -6 -25 -13 -2 -7 -14 -13 -25 -14
-26 -2 -79 -26 -79 -35 0 -5 92 -8 204 -8 234 0 231 -1 285 95 31 55 40 95 21
95 -5 0 -10 -4 -10 -10 0 -5 -14 -10 -31 -10 -24 0 -29 4 -25 18 3 9 1 44 -3
77 -5 33 -9 54 -10 46z"/>
<path d="M3110 60 c-11 -7 -5 -10 25 -10 24 0 58 -10 84 -25 23 -14 50 -25 59
-25 23 0 5 14 -54 44 -55 27 -89 32 -114 16z"/>
</g>
</svg>
